<mxfile host="app.diagrams.net" modified="2024-02-21T12:16:31.880Z" agent="Mozilla/5.0 (Macintosh; Intel Mac OS X 10_15_7) AppleWebKit/605.1.15 (KHTML, like Gecko) Version/17.0 Safari/605.1.15" version="23.1.5" etag="33u34HOLtY_WahjS3WuU" type="github">
  <diagram name="Page-1" id="bwiCpvWA08jirKJM6ZO-">
    <mxGraphModel>
      <root>
        <mxCell id="0" />
        <mxCell id="1" parent="0" />
      </root>
    </mxGraphModel>
  </diagram>
</mxfile>
